<svg width="112" height="112" viewBox="0 0 112 112" fill="none" xmlns="http://www.w3.org/2000/svg">
<path d="M112 106C112 109.314 109.314 112 106 112H42.4C39.0863 112 36.4 109.314 36.4 106V92.1C36.4 88.7863 39.0863 86.1 42.4 86.1H82.1C84.3091 86.1 86.1 84.3091 86.1 82.1V42.4C86.1 39.0863 88.7863 36.4 92.1 36.4H106C109.314 36.4 112 39.0863 112 42.4V106Z" fill="white"/>
<path d="M75.6 19.9C75.6 23.2137 72.9137 25.9 69.6 25.9H29.9C27.6909 25.9 25.9 27.6909 25.9 29.9V69.6C25.9 72.9137 23.2137 75.6 19.9 75.6H5.99999C2.68629 75.6 0 72.9137 0 69.6V5.99999C0 2.68628 2.68629 0 6 0H69.6C72.9137 0 75.6 2.68629 75.6 6V19.9Z" fill="white"/>
</svg>
