<svg width="77" height="18" viewBox="0 0 77 18" fill="none" xmlns="http://www.w3.org/2000/svg">
<path d="M17.599 16.5004C17.599 17.0162 17.1769 17.4344 16.6562 17.4344H6.66246C6.14177 17.4344 5.71966 17.0162 5.71966 16.5004V14.3366C5.71966 13.8208 6.14177 13.4027 6.66247 13.4027H12.9007C13.2478 13.4027 13.5292 13.1239 13.5292 12.78V6.60015C13.5292 6.08432 13.9513 5.66616 14.472 5.66616H16.6562C17.1769 5.66616 17.599 6.08432 17.599 6.60015V16.5004Z" fill="white"/>
<path d="M11.8793 3.09771C11.8793 3.61354 11.4572 4.03169 10.9365 4.03169H4.6983C4.35117 4.03169 4.06976 4.31047 4.06976 4.65435V10.8342C4.06976 11.35 3.64765 11.7682 3.12696 11.7682H0.942801C0.422106 11.7682 0 11.35 0 10.8342V0.933982C0 0.418157 0.422107 0 0.942802 0H10.9365C11.4572 0 11.8793 0.418159 11.8793 0.933983V3.09771Z" fill="white"/>
<path d="M31.9597 14.6836C30.7187 14.6836 29.6758 14.4563 28.831 14.0017C27.9863 13.5471 27.3501 12.9014 26.9225 12.0646C26.4949 11.2277 26.2811 10.2359 26.2811 9.08911C26.2811 7.93198 26.5106 6.935 26.9694 6.09815C27.4283 5.25097 28.0853 4.60009 28.9405 4.1455C29.8061 3.68059 30.8438 3.44813 32.0536 3.44813C32.8566 3.44813 33.5606 3.55661 34.1655 3.77357C34.7703 3.9802 35.3022 4.28498 35.7611 4.6879L35.0884 6.23762C34.7547 5.97934 34.4366 5.77271 34.1342 5.61773C33.8317 5.46276 33.5189 5.35428 33.1956 5.29229C32.8723 5.21997 32.4968 5.18381 32.0692 5.18381C30.8595 5.18381 29.9417 5.52475 29.316 6.20663C28.7007 6.87817 28.393 7.84417 28.393 9.10461C28.393 10.365 28.685 11.3259 29.269 11.9871C29.8635 12.6483 30.7917 12.9789 32.0536 12.9789C32.4812 12.9789 32.9088 12.9376 33.3364 12.8549C33.7744 12.7723 34.202 12.6535 34.6191 12.4985L34.2437 13.3353V10.0654H31.6625V8.6087H35.9175V13.8622C35.4065 14.1205 34.7964 14.322 34.0872 14.4666C33.3781 14.6113 32.6689 14.6836 31.9597 14.6836Z" fill="white"/>
<path d="M38.0487 14.5286V8.70168C38.0487 8.37107 38.0383 8.0353 38.0174 7.69436C38.007 7.35342 37.9809 7.02281 37.9392 6.70254H39.8321L40.0511 8.84115H39.7382C39.8425 8.32458 40.0146 7.89582 40.2545 7.55489C40.5048 7.21395 40.8072 6.96083 41.1618 6.79552C41.5164 6.63022 41.9022 6.54757 42.3194 6.54757C42.5071 6.54757 42.6583 6.5579 42.7731 6.57856C42.8878 6.58889 43.0025 6.61472 43.1172 6.65605L43.1016 8.36074C42.9034 8.27809 42.7314 8.22643 42.5853 8.20577C42.4498 8.18511 42.2777 8.17477 42.0691 8.17477C41.6207 8.17477 41.24 8.26776 40.9271 8.45372C40.6247 8.63969 40.3953 8.89798 40.2388 9.22858C40.0928 9.55919 40.0198 9.93629 40.0198 10.3599V14.5286H38.0487Z" fill="white"/>
<path d="M44.2057 14.5286V6.70254H46.1611V14.5286H44.2057ZM44.0962 5.23031V3.33965H46.2706V5.23031H44.0962Z" fill="white"/>
<path d="M48.2846 14.5286V8.65519C48.2846 8.33491 48.2742 8.00947 48.2533 7.67886C48.2325 7.34826 48.2012 7.02281 48.1594 6.70254H50.0523L50.2088 8.25226H50.021C50.2713 7.70469 50.6416 7.28627 51.1317 6.99699C51.6219 6.69737 52.1903 6.54757 52.8369 6.54757C53.765 6.54757 54.4638 6.80585 54.9331 7.32243C55.4024 7.839 55.6371 8.64486 55.6371 9.73999V14.5286H53.6816V9.83298C53.6816 9.20276 53.5565 8.75334 53.3062 8.48472C53.0663 8.20577 52.7013 8.06629 52.2111 8.06629C51.6062 8.06629 51.1265 8.25226 50.7719 8.62419C50.4173 8.99612 50.24 9.49204 50.24 10.1119V14.5286H48.2846Z" fill="white"/>
<path d="M61.371 18C60.641 18 59.9787 17.9225 59.3843 17.7675C58.8003 17.6126 58.2788 17.3749 57.8199 17.0547L58.2423 15.6599C58.5448 15.8562 58.8576 16.0164 59.1809 16.1403C59.5042 16.2643 59.838 16.3573 60.1821 16.4193C60.5263 16.4813 60.8756 16.5123 61.2302 16.5123C61.9603 16.5123 62.5026 16.3315 62.8572 15.9699C63.2222 15.6186 63.4047 15.1124 63.4047 14.4511V12.576H63.5611C63.3942 13.1132 63.0553 13.542 62.5443 13.8622C62.0437 14.1825 61.4649 14.3427 60.8079 14.3427C60.0987 14.3427 59.4782 14.1877 58.9463 13.8777C58.4248 13.5575 58.0181 13.1029 57.7261 12.514C57.4341 11.9251 57.2881 11.2329 57.2881 10.4374C57.2881 9.64184 57.4341 8.9548 57.7261 8.37624C58.0181 7.78734 58.4248 7.33792 58.9463 7.02798C59.4782 6.7077 60.0987 6.54757 60.8079 6.54757C61.4753 6.54757 62.0541 6.7077 62.5443 7.02798C63.0449 7.33792 63.3786 7.76151 63.5455 8.29875L63.4047 8.20577L63.5611 6.70254H65.454C65.4123 7.02281 65.381 7.34826 65.3601 7.67886C65.3393 8.00947 65.3288 8.33491 65.3288 8.65519V14.2187C65.3288 15.4481 64.9899 16.3831 64.312 17.0237C63.6445 17.6746 62.6642 18 61.371 18ZM61.3397 12.8549C61.9655 12.8549 62.4609 12.6483 62.8259 12.235C63.2013 11.8115 63.389 11.2122 63.389 10.4374C63.389 9.66251 63.2013 9.06845 62.8259 8.65519C62.4609 8.24193 61.9655 8.0353 61.3397 8.0353C60.7036 8.0353 60.1978 8.24193 59.8223 8.65519C59.4469 9.06845 59.2591 9.66251 59.2591 10.4374C59.2591 11.2122 59.4469 11.8115 59.8223 12.235C60.1978 12.6483 60.7036 12.8549 61.3397 12.8549Z" fill="white"/>
<path d="M66.2529 14.5286L70.7895 8.54671V9.39905L66.4093 3.6031H68.7715L71.9471 7.95781H71.3058L74.4658 3.6031H76.8436L72.4477 9.39905V8.54671L77 14.5286H74.6222L71.2745 9.97245H71.9628L68.6151 14.5286H66.2529Z" fill="white"/>
</svg>
